<svg width="58" height="60" fill="none" xmlns="http://www.w3.org/2000/svg"><g clip-path="url(#clip0)" fill="#CB4900"><path d="M28.521 27.363c-.156 0-.31.016-.458.045l-7.648-13.933a.814.814 0 00-1.141-.322.904.904 0 00-.306 1.2l7.649 13.935A2.706 2.706 0 0026.014 30c0 1.146.699 2.123 1.672 2.485V52.09c0 .485.373.879.835.879.462 0 .836-.394.836-.88V32.487c.972-.363 1.67-1.34 1.67-2.486 0-1.454-1.124-2.637-2.506-2.637zm0 3.516c-.46 0-.835-.394-.835-.879s.374-.879.835-.879c.46 0 .836.394.836.879s-.375.879-.836.879z"/><path d="M48.689 8.787C43.302 3.12 36.139 0 28.52 0 20.902 0 13.74 3.12 8.353 8.787 2.967 14.453 0 21.987 0 30c0 8.013 2.967 15.547 8.354 21.213C13.74 56.88 20.903 60 28.52 60c7.618 0 14.78-3.12 20.168-8.787 5.387-5.666 8.353-13.2 8.353-21.213 0-8.013-2.967-15.547-8.353-21.213zM28.52 58.242C13.715 58.242 1.67 45.572 1.67 30c0-15.573 12.045-28.242 26.85-28.242 14.805 0 26.85 12.67 26.85 28.242 0 15.573-12.045 28.242-26.85 28.242z"/><path d="M28.521 8.79c.462 0 .836-.394.836-.88 0-.485-.374-.879-.836-.879-.461 0-.835.394-.835.88 0 .485.374.878.835.878zM18.02 11.748c.462 0 .836-.393.836-.879 0-.485-.374-.879-.835-.879-.462 0-.836.394-.836.88 0 .485.374.878.836.878zm-7.687 8.086c.462 0 .836-.393.836-.879 0-.485-.374-.879-.836-.879-.461 0-.835.394-.835.88 0 .485.374.878.835.878zM7.52 30.879c.462 0 .836-.394.836-.879s-.374-.879-.836-.879c-.461 0-.835.394-.835.879s.374.879.835.879zm2.813 11.045c.462 0 .836-.394.836-.88 0-.484-.374-.878-.836-.878-.461 0-.835.394-.835.879s.374.879.835.879zm7.687 8.086c.462 0 .836-.394.836-.88 0-.485-.374-.878-.835-.878-.462 0-.836.393-.836.879 0 .485.374.879.836.879zm21.002 0c.461 0 .835-.394.835-.88 0-.485-.374-.878-.835-.878-.462 0-.836.393-.836.879 0 .485.374.879.836.879zm7.687-8.086c.461 0 .835-.394.835-.88 0-.484-.374-.878-.835-.878-.462 0-.836.394-.836.879s.374.879.836.879zm2.813-11.045c.462 0 .836-.394.836-.879s-.374-.879-.836-.879c-.462 0-.836.394-.836.879s.374.879.836.879zm-2.813-11.045c.461 0 .835-.393.835-.879 0-.485-.374-.879-.835-.879-.462 0-.836.394-.836.88 0 .485.374.878.836.878zm-7.687-8.086c.461 0 .835-.393.835-.879 0-.485-.374-.879-.835-.879-.462 0-.836.394-.836.88 0 .485.374.878.836.878z"/><path d="M46.325 11.273C41.57 6.27 35.246 3.516 28.521 3.516c-6.084 0-11.958 2.314-16.54 6.516a.911.911 0 00-.08 1.24.807.807 0 001.178.085c4.278-3.923 9.762-6.084 15.442-6.084C41.483 5.273 52.03 16.366 52.03 30S41.483 54.727 28.52 54.727 5.013 43.634 5.013 30c0-5.975 2.054-11.743 5.784-16.242a.911.911 0 00-.08-1.24.807.807 0 00-1.18.085C5.542 17.422 3.342 23.6 3.342 30c0 7.074 2.62 13.725 7.375 18.727 4.756 5.003 11.079 7.757 17.804 7.757 6.725 0 13.048-2.755 17.804-7.757C51.081 43.725 53.7 37.074 53.7 30s-2.62-13.725-7.375-18.727z"/></g><defs><clipPath id="clip0"><path fill="#fff" d="M0 0h57.042v60H0z"/></clipPath></defs></svg>