<svg width="60" height="60" fill="none" xmlns="http://www.w3.org/2000/svg"><g clip-path="url(#clip0)" fill="#CB4900"><path d="M59.239 31.038a.88.88 0 00-.99.753 13.096 13.096 0 01-4.335 8.056 13.095 13.095 0 01-8.653 3.262 13.05 13.05 0 01-5.01-.99.977.977 0 00-.083-.03c-.019-.006-1.894-.592-4.685-2.808a.88.88 0 00-1.094 1.379c2.863 2.273 4.875 2.986 5.226 3.1a14.785 14.785 0 005.646 1.109c3.616 0 7.102-1.314 9.815-3.7a14.856 14.856 0 004.916-9.14.88.88 0 00-.753-.99z"/><path d="M38.06 36.091c1.867 1.665 4.19 3.367 7.26 3.367h.003c5.213-.002 9.454-4.245 9.454-9.458 0-5.215-4.243-9.458-9.458-9.458-3.596 0-6.047 2.088-7.78 3.907-2.537 2.662-8.29 9.487-8.5 9.751-5.515 6.98-8.79 7.822-8.97 7.863a.664.664 0 00-.191.055 13.025 13.025 0 01-4.46.98l-.558.01a13.018 13.018 0 01-9.294-3.873 13.02 13.02 0 01-3.805-9.333c.025-3.491 1.42-6.772 3.93-9.238 2.478-2.436 5.733-3.773 9.179-3.773h.132c1.63.017 3.219.329 4.72.928.093.037.186.073.28.108.458.172 4.496 1.803 9.041 7.572 0 0-1.953 2.386-2.404 2.922a66.277 66.277 0 00-4.569-4.512c-1.867-1.665-4.19-3.367-7.26-3.367h-.003c-.314 0-.63.015-.942.046a.88.88 0 00.174 1.752c.254-.026.512-.038.768-.038h.004c1.391 0 3.203.348 6.088 2.92a65.386 65.386 0 014.586 4.546 134.96 134.96 0 01-4.168 4.569c-2.215 2.324-4.222 3.36-6.507 3.36-4.244 0-7.698-3.453-7.698-7.697a7.691 7.691 0 013.434-6.41.88.88 0 10-.976-1.465A9.449 9.449 0 005.352 30c0 5.215 4.243 9.458 9.458 9.458 3.597 0 6.048-2.088 7.781-3.907 2.537-2.662 8.655-9.95 8.655-9.95l.011-.013c5.415-6.787 8.626-7.61 8.803-7.65a.666.666 0 00.192-.056 13.027 13.027 0 014.46-.98l.557-.01a13.109 13.109 0 0112.941 11.06.88.88 0 001.74-.273 14.87 14.87 0 00-14.707-12.548l-.576.011a14.781 14.781 0 00-5.007 1.08c-.737.164-4.08 1.242-9.473 7.888-4.639-5.775-8.758-7.529-9.569-7.832-.082-.03-.163-.063-.244-.095a14.793 14.793 0 00-5.354-1.052c-3.969-.041-7.717 1.48-10.563 4.277C1.612 22.205.029 25.927 0 29.89a14.769 14.769 0 004.316 10.586A14.766 14.766 0 0014.87 44.87h.018l.576-.012h.018a14.783 14.783 0 004.989-1.08c.727-.161 3.99-1.213 9.253-7.62a41.103 41.103 0 001.524 1.65.88.88 0 001.259-1.229 39.783 39.783 0 01-1.654-1.803c.462-.558 2.187-2.66 2.639-3.196a66.299 66.299 0 004.568 4.512zm.752-10.428c2.216-2.325 4.223-3.361 6.507-3.361 4.245 0 7.698 3.453 7.698 7.698 0 4.243-3.452 7.697-7.695 7.698h-.003c-1.391 0-3.203-.348-6.089-2.92a65.323 65.323 0 01-4.586-4.547 135.062 135.062 0 014.168-4.568z"/></g><defs><clipPath id="clip0"><path fill="#fff" d="M0 0h60v60H0z"/></clipPath></defs></svg>