<svg width="60" height="60" fill="none" xmlns="http://www.w3.org/2000/svg"><g clip-path="url(#clip0)" fill="#CB4900"><path d="M43.794 10.048c-4.346 0-7.882 3.536-7.882 7.882s3.536 7.883 7.882 7.883 7.882-3.537 7.882-7.883-3.536-7.882-7.882-7.882zm0 13.794a5.918 5.918 0 01-5.912-5.912 5.918 5.918 0 015.912-5.911 5.918 5.918 0 015.912 5.911 5.918 5.918 0 01-5.912 5.912z"/><path d="M55.85 32.71a4.95 4.95 0 00-4.406 0l-4.357 2.178a2.912 2.912 0 01-.541.195c-.029-.038-.05-.08-.085-.114L28.437 16.945 38.58 6.804a.984.984 0 000-1.394L33.653.484a.984.984 0 00-1.394 0l-16.75 16.75a.984.984 0 000 1.393l8.171 8.17-8.057 8.059-.065.032a2.972 2.972 0 01-2.645 0L8.556 32.71a4.953 4.953 0 00-4.407 0L0 34.784l.882 1.762 4.149-2.074a2.972 2.972 0 012.644 0l4.357 2.179c1.38.69 3.027.688 4.407 0l.208-.104 4.15-2.074a2.972 2.972 0 012.644 0l4.149 2.074.207.104c1.38.69 3.027.688 4.407 0l.208-.104 4.149-2.074a2.972 2.972 0 012.645 0l4.149 2.074.207.104c.69.346 1.446.517 2.203.517a4.93 4.93 0 002.203-.517l4.357-2.179a2.972 2.972 0 012.644 0l4.15 2.074.881-1.762-4.15-2.074zm-15.765 0a4.953 4.953 0 00-4.407 0l-4.149 2.074-.208.103a2.972 2.972 0 01-2.644 0l-.208-.103-4.148-2.074a4.814 4.814 0 00-.726-.285 4.862 4.862 0 00-.927-.201c-.027-.003-.053-.002-.08-.005a4.901 4.901 0 00-.891-.002c-.25.022-.497.057-.74.115-.009.002-.019.002-.029.005l4.842-4.842a.984.984 0 000-1.393L17.6 17.93 32.955 2.574l3.533 3.533-10.141 10.142a.984.984 0 000 1.393L42.745 34.04l-2.66-1.33zM9.161 57.483c-.445-.268-1.054-.634-2.148-.634s-1.704.366-2.15.634c-.366.219-.587.352-1.136.352-.548 0-.77-.133-1.136-.352-.446-.268-1.055-.634-2.15-.634v1.97c.55 0 .77.134 1.136.353.446.268 1.056.633 2.15.633 1.094 0 1.704-.365 2.15-.633.367-.22.587-.352 1.136-.352.547 0 .768.133 1.132.352.446.268 1.056.633 2.15.633v-1.97c-.548 0-.768-.133-1.134-.352zm24.632 0c-.444-.267-1.054-.634-2.147-.634-1.094 0-1.704.366-2.15.634-.366.22-.588.352-1.136.352-.547 0-.77-.133-1.136-.352-.447-.268-1.056-.634-2.15-.634v1.97c.548 0 .769.134 1.135.353.446.267 1.056.633 2.15.633 1.094 0 1.704-.365 2.15-.633.367-.22.588-.352 1.137-.352.547 0 .768.133 1.132.352.445.268 1.055.633 2.148.633v-1.97c-.547 0-.767-.133-1.133-.352zm23.647 0c-.444-.267-1.054-.634-2.147-.634-1.094 0-1.704.366-2.15.634-.366.22-.588.352-1.136.352-.547 0-.77-.133-1.136-.352-.447-.268-1.056-.634-2.15-.634v1.97c.548 0 .769.134 1.136.353.445.267 1.055.633 2.15.633 1.093 0 1.703-.365 2.15-.633.366-.22.588-.352 1.136-.352.547 0 .768.133 1.132.352.445.268 1.055.633 2.148.633v-1.97c-.547 0-.767-.133-1.133-.352zM20.985 49.6c-.445-.267-1.055-.633-2.147-.633-1.095 0-1.705.366-2.15.633-.367.22-.588.352-1.136.352-.548 0-.77-.133-1.136-.352-.447-.267-1.056-.633-2.151-.633v1.97c.549 0 .77.134 1.136.352.445.267 1.055.634 2.15.634 1.094 0 1.703-.366 2.15-.634.366-.22.588-.352 1.137-.352.547 0 .767.134 1.132.352.444.268 1.054.634 2.148.634v-1.97c-.547 0-.768-.134-1.133-.353zm24.632 0c-.445-.267-1.054-.633-2.147-.633-1.095 0-1.705.366-2.15.633-.367.22-.588.352-1.136.352-.548 0-.77-.133-1.136-.352-.448-.267-1.056-.633-2.151-.633v1.97c.549 0 .77.134 1.136.352.445.267 1.055.634 2.15.634 1.094 0 1.703-.366 2.15-.634.366-.22.588-.352 1.137-.352.547 0 .767.134 1.132.352.444.268 1.054.634 2.148.634v-1.97c-.547 0-.768-.134-1.133-.353zm10.233-8.489a4.958 4.958 0 00-4.406 0l-4.356 2.18a2.972 2.972 0 01-2.645 0l-4.357-2.18a4.956 4.956 0 00-4.406 0l-4.356 2.18a2.972 2.972 0 01-2.644 0l-4.357-2.18a4.956 4.956 0 00-4.407 0l-4.355 2.18a2.972 2.972 0 01-2.645 0L8.56 41.11a4.956 4.956 0 00-4.406 0l-4.15 2.075.883 1.763 4.148-2.075a2.972 2.972 0 012.644 0l4.357 2.18a4.957 4.957 0 004.406 0l4.356-2.18a2.972 2.972 0 012.645 0l4.357 2.18a4.957 4.957 0 004.406 0l4.356-2.18a2.972 2.972 0 012.645 0l4.356 2.18c.69.344 1.447.516 2.204.516a4.94 4.94 0 002.203-.517l4.356-2.18a2.972 2.972 0 012.644 0l4.15 2.076.881-1.763-4.15-2.075z"/></g><defs><clipPath id="clip0"><path fill="#fff" d="M0 0h60v60H0z"/></clipPath></defs></svg>