<svg width="58" height="60" fill="none" xmlns="http://www.w3.org/2000/svg"><path d="M53.972 30.748l.584-1.77c-4.017-1.47-8.773-.282-11.828 2.806-2.121-.85-4.55-1.125-7.056-.73-3.274.514-6.102 2.093-8.053 4.367-1.295-.92-2.104-1.402-3.391-1.655a8.968 8.968 0 00-1.564-.168c.119-.82.2-1.655.204-2.515.01-1.419-.134-2.828-.273-4.19a60.767 60.767 0 01-.208-2.51c1.783 1.176 3.88 1.867 6.134 1.867 6.389 0 11.587-5.468 11.587-12.188 0-6.72-5.198-12.187-11.587-12.187-4.512 0-8.42 2.734-10.334 6.704l-.014-.019-3.525 2.853-.33.237c-.476.235-1.018.533-1.484.964-.925.855-1.319 2.112-1.665 3.221a18.32 18.32 0 01-.299.903L5.531 31.13c-.455 1.228-.868 3.723-1.266 6.137-.226 1.365-.438 2.654-.609 3.359-.068.278-.13.56-.194.84-.25 1.111-.486 2.16-.978 3.054-.244.444-.103 1.013.315 1.275l3.14 1.963c8.417 5.259 18.941 8.887 28.152 9.705.714.063 1.614.101 2.64.101 5.125 0 13.39-.942 17.311-4.342l-1.133-1.447c-4.049 3.511-14.158 4.22-18.668 3.82-8.954-.796-19.194-4.328-27.39-9.448l-2.43-1.52c.362-.89.572-1.822.775-2.73.06-.271.122-.541.186-.81.188-.775.397-2.037.639-3.5.348-2.105.78-4.724 1.17-5.777l5.339-14.39c.116-.314.223-.653.331-.999.289-.925.588-1.881 1.148-2.399.316-.292.727-.51 1.123-.703a.733.733 0 00.13-.078l1.889-1.51a12.968 12.968 0 00-.217 2.332c0 3.475 1.397 6.606 3.622 8.828-.001.207-.005.413-.001.622.026 1.21.15 2.415.269 3.582.139 1.37.27 2.665.263 3.978-.024 3.927-1.47 7.592-3.87 9.804l1.175 1.41c1.866-1.72 3.197-4.1 3.902-6.819.39-.018.936.01 1.607.142.935.184 1.505.506 2.628 1.3-.485.787-.881 1.63-1.168 2.525l1.69.597c1.187-3.718 4.59-6.447 8.885-7.123 4.304-.68 8.316.874 10.473 4.046l1.45-1.09a10.998 10.998 0 00-3.393-3.206c2.583-2.261 6.32-3.075 9.506-1.91zM18.717 14.062c0-5.685 4.398-10.312 9.804-10.312 5.406 0 9.804 4.627 9.804 10.313 0 5.685-4.398 10.312-9.804 10.312-5.406 0-9.804-4.627-9.804-10.313z" fill="#CB4900"/><path d="M28.521 22.5c4.423 0 8.022-3.786 8.022-8.438 0-4.651-3.599-8.437-8.022-8.437S20.5 9.411 20.5 14.063c0 4.651 3.598 8.437 8.021 8.437zm0-15c3.44 0 6.24 2.944 6.24 6.563 0 3.618-2.8 6.562-6.24 6.562-3.44 0-6.239-2.944-6.239-6.563 0-3.618 2.8-6.562 6.24-6.562z" fill="#CB4900"/><path d="M26 16.714c.126.132.3.544.44.874.375.886.888 2.1 2.081 2.1 1.194 0 1.706-1.214 2.081-2.1.14-.33.315-.742.44-.874.126-.132.517-.315.831-.462.843-.394 1.996-.935 1.996-2.19 0-1.254-1.153-1.795-1.996-2.189-.314-.147-.705-.33-.831-.462s-.3-.543-.44-.874c-.375-.886-.887-2.1-2.08-2.1-1.194 0-1.707 1.214-2.082 2.1-.14.33-.315.742-.44.874-.126.132-.516.315-.831.462-.842.394-1.995.935-1.995 2.19 0 1.254 1.153 1.795 1.995 2.189.315.147.705.33.832.462zm-.106-3.127c.495-.232 1.008-.471 1.367-.85.36-.379.587-.917.807-1.438.113-.265.305-.72.453-.922.148.203.34.657.453.922.22.521.448 1.06.808 1.438.359.378.872.618 1.367.85.25.117.683.32.875.476-.193.156-.625.358-.875.475-.496.232-1.008.471-1.367.85-.36.379-.588.917-.808 1.438-.112.265-.305.72-.453.922-.148-.203-.34-.657-.453-.922-.22-.521-.448-1.06-.807-1.438-.36-.378-.873-.618-1.367-.85-.25-.117-.684-.32-.876-.476.192-.156.625-.358.876-.475zM55.26 22.5V2.812c0-.517-.399-.937-.892-.937h-8.912a.9.9 0 00-.854.668l-2.674 9.375a.978.978 0 00.138.83.88.88 0 00.716.377h3.565v7.5c0 1.55 1.2 2.813 2.674 2.813h5.347c.493 0 .892-.42.892-.938zm-1.783-.938h-4.456c-.492 0-.892-.42-.892-.937v-2.813c1.967 0 3.566-1.681 3.566-3.75h-1.783c0 1.035-.8 1.876-1.782 1.876v-3.75c0-.518-.399-.938-.892-.938H43.98l2.139-7.5h7.358v17.813z" fill="#CB4900"/></svg>