<svg width="60" height="60" fill="none" xmlns="http://www.w3.org/2000/svg"><path d="M9.375 23.727v33.46a.937.937 0 00.938.938h3.75a.938.938 0 00.937-.938v-33.46c3.343-1.565 5.625-5.807 5.625-10.602 0-2.951-.844-5.737-2.376-7.843-1.598-2.197-3.75-3.407-6.061-3.407-2.312 0-4.464 1.21-6.062 3.407-1.532 2.106-2.376 4.892-2.376 7.843 0 4.795 2.282 9.037 5.625 10.602zM12.188 3.75c3.618 0 6.562 4.206 6.562 9.375 0 4.308-2.056 8.047-5 9.09a.938.938 0 00-.625.884V56.25H11.25V23.1a.937.937 0 00-.624-.884c-2.945-1.044-5.001-4.783-5.001-9.091 0-5.17 2.944-9.375 6.563-9.375zm18.75 20.156v33.281a.938.938 0 00.937.938h3.75a.937.937 0 00.938-.938v-33.28c3.441-1.197 5.625-4.61 5.625-8.907a.75.75 0 00-.003-.067L41.37 3.54a1.865 1.865 0 00-1.862-1.665h-.302a1.88 1.88 0 00-1.846 1.551l-.797 5.287-.797-5.287a1.88 1.88 0 00-1.847-1.551h-.409a1.863 1.863 0 00-1.796 1.336.937.937 0 00-.03.134l-.785 5.4-.823-5.213a1.869 1.869 0 00-1.862-1.657h-.223A1.865 1.865 0 0026.13 3.54l-.815 11.393a.932.932 0 00-.003.067c0 4.297 2.184 7.71 5.626 8.906zM27.995 3.75h.22a.885.885 0 00.006.053l1.79 11.344a.937.937 0 00.927.79h.005a.938.938 0 00.922-.802L33.52 3.75h.398l1.718 11.39a.938.938 0 001.854 0l1.717-11.39h.298l.808 11.283c-.012 3.68-1.938 6.529-4.913 7.264a.938.938 0 00-.712.91V56.25h-1.875V23.207a.938.938 0 00-.713-.91c-2.975-.735-4.9-3.585-4.912-7.264l.807-11.283zm22.63 28.61v24.828a.938.938 0 00.938.937h3.75a.938.938 0 00.937-.938v-52.5a2.816 2.816 0 00-2.813-2.812c-.193 0-1.939.067-3.578 2.39-1.98 2.804-2.984 7.678-2.984 14.485 0 9.443 2.584 12.646 3.75 13.61zm2.826-28.61h-.014.014zm.008 0a.938.938 0 01.916.938V56.25H52.5V31.875a.938.938 0 00-.518-.838c-.007-.004-.718-.448-1.456-1.925-.81-1.62-1.776-4.733-1.776-10.362 0-14.229 4.485-14.973 4.709-15z" fill="#CB4900"/></svg>