<svg width="60" height="60" fill="none" xmlns="http://www.w3.org/2000/svg"><path d="M56.316 24.223h-.92V21.72a5.24 5.24 0 00-5.234-5.233h-1.306a4.837 4.837 0 00-4.663-3.575 4.835 4.835 0 00-4.829 4.83v7.991H20.636v-7.992a4.835 4.835 0 00-4.83-4.829 4.837 4.837 0 00-4.662 3.575H9.838a5.24 5.24 0 00-5.233 5.233v2.503h-.92A3.689 3.689 0 000 27.907v4.173a3.688 3.688 0 003.684 3.684h.92v2.516a5.24 5.24 0 005.234 5.233h1.306a4.837 4.837 0 004.663 3.575 4.835 4.835 0 004.829-4.83v-7.991h16.055a.879.879 0 100-1.758H20.636V27.49h18.728v14.768a4.835 4.835 0 004.83 4.829 4.837 4.837 0 004.662-3.575h1.306a5.24 5.24 0 005.233-5.233v-2.516h.92A3.688 3.688 0 0060 32.08v-4.173a3.689 3.689 0 00-3.684-3.684zM4.605 34.005h-.92a1.929 1.929 0 01-1.927-1.926v-4.173c0-1.062.864-1.927 1.926-1.927h.92v8.026zm14.273 8.253a3.075 3.075 0 01-3.071 3.071 3.075 3.075 0 01-3.072-3.071V24.525a.879.879 0 10-1.758 0v17.23H9.838a3.48 3.48 0 01-3.475-3.475V21.72a3.48 3.48 0 013.475-3.476h1.14v2.388a.879.879 0 101.757 0v-2.89a3.075 3.075 0 013.072-3.072 3.075 3.075 0 013.071 3.071V42.26zm28.387 0a3.075 3.075 0 01-3.072 3.071 3.075 3.075 0 01-3.071-3.071V17.74a3.075 3.075 0 013.071-3.071 3.075 3.075 0 013.072 3.071v24.52zm6.373-3.979a3.48 3.48 0 01-3.476 3.476h-1.14V18.244h1.14a3.48 3.48 0 013.476 3.476v16.56zm4.604-6.2a1.929 1.929 0 01-1.926 1.926h-.92V25.98h.92c1.062 0 1.926.864 1.926 1.927v4.173z" fill="#CB4900"/></svg>