<svg width="25" height="25" fill="none" xmlns="http://www.w3.org/2000/svg"><g clip-path="url(#clip0)" fill="#fff"><path d="M11.352 19.059a.488.488 0 10.69.69.488.488 0 00-.69-.69z"/><path d="M23.874 18.21l-3.707-3.152a.5.5 0 00-.054-.04 2.427 2.427 0 00-3.037.334l-2.021 2.02a.487.487 0 01-.532.107c-2.283-.944-4.157-2.366-5.573-4.224-1.08-1.418-1.468-2.544-1.52-2.703a.484.484 0 00-.03-.1.486.486 0 01.107-.532l2.02-2.022a2.426 2.426 0 00.319-3.06l-2.678-3.72A2.441 2.441 0 003.39.715l-.404.405h-.001L1.54 2.567C-.184 4.289-.465 6.879.725 10.055c1.019 2.72 3.06 5.698 5.745 8.384 2.75 2.749 5.807 4.827 8.61 5.852 2.776 1.013 5.727 1.138 7.816-.951l1.363-1.363a2.442 2.442 0 00-.385-3.766zm-4.312-2.385l3.704 3.15a.48.48 0 00.054.04c.79.504.91 1.61.248 2.272l-.1.101-6.318-4.73.616-.616a1.455 1.455 0 011.796-.217zM6.352 1.655l.016.023 2.676 3.719c.364.582.28 1.325-.207 1.81l-.597.598L3.966 1.52l.115-.114a1.465 1.465 0 012.272.249zm9.064 21.718c-2.673-.976-5.605-2.974-8.255-5.625-2.59-2.59-4.55-5.443-5.522-8.036C.909 7.766.42 5.066 2.23 3.256l1.033-1.033 4.274 6.285-.72.721a1.459 1.459 0 00-.335 1.555c.154.632.863 1.945 1.579 2.912 1.053 1.424 2.964 3.392 6.088 4.685a1.46 1.46 0 001.596-.318l.708-.707 6.317 4.73-.564.563c-1.94 1.94-4.763 1.465-6.79.724z"/><path d="M10.435 17.893c-.515-.452-1.407-1.23-1.877-1.713-1.152-1.184-2.36-2.62-3.08-3.656a.488.488 0 10-.802.556c.906 1.308 2.238 2.81 3.182 3.78.496.51 1.395 1.296 1.934 1.767a.489.489 0 00.643-.734z"/></g><defs><clipPath id="clip0"><path fill="#fff" d="M0 0h25v25H0z"/></clipPath></defs></svg>