<svg width="60" height="60" fill="none" xmlns="http://www.w3.org/2000/svg"><g clip-path="url(#clip0)" fill="#CB4900"><path d="M12 10h1a1 1 0 000-2h-1a1 1 0 000 2zm5 0h13a1 1 0 000-2H17a1 1 0 000 2z"/><path d="M50.923 32H48.73a4.704 4.704 0 00-1.344.2.913.913 0 00-.1.03 4.632 4.632 0 00-1.452.82c.217-2.3 1.356-5.64 5.678-8.191a1 1 0 00-1.016-1.723 13.17 13.17 0 00-5.924 6.638 8.36 8.36 0 00-2.572-3.9V9.002a3 3 0 00-3-3h-4.183A3 3 0 0032 4h-5.358a5.98 5.98 0 00-11.285 0H10a3 3 0 00-2.816 2H3.001a3 3 0 00-3 3v48a3 3 0 003 3h36c.467 0 .928-.11 1.343-.325.914.214 1.849.324 2.787.325h3.738C54.11 60 60 53.721 60 46v-4.33c0-5.33-4.072-9.67-9.077-9.67zm-8.393-2.01c.26.785.447 1.592.56 2.41-.1-.042-.19-.1-.29-.133A4.54 4.54 0 0041.265 32h-2.189a9.1 9.1 0 00-.812.044c-.024-.006-.043-.022-.069-.028-3.31-.662-3.264-4.524-3.139-5.905.639-.074 1.28-.11 1.922-.108H37a5.9 5.9 0 015.53 3.991v-.004zM32.37 54H6V12h1.185a3 3 0 002.816 2h22a3 3 0 002.816-2H36v12.015c-2.582.092-2.754.811-2.846 1.223-.352 2.057-.173 5.7 2.208 7.623A9.718 9.718 0 0030 41.67V46a14.549 14.549 0 002.37 8zM40 9v15.65a8 8 0 00-2-.549v-12.1a2 2 0 00-2-2h-1V8h4a1 1 0 011 1zM10 6h6.1a.821.821 0 00.1-.02.964.964 0 00.368-.113.962.962 0 00.469-.575.846.846 0 00.04-.093 4 4 0 017.837 0c.012.036.026.071.042.106.016.048.035.097.057.143a.96.96 0 00.122.18.87.87 0 00.093.107c.06.051.125.095.194.13a.785.785 0 00.478.136H32a1 1 0 011 1v4a1 1 0 01-1 1H10a1 1 0 01-1-1V7a1 1 0 011-1zM3.002 58a1 1 0 01-1-1V9a1 1 0 011-1h4v2h-1a2 2 0 00-2 2v42a2 2 0 002 2h27.957a13.396 13.396 0 002.442 2h-33.4zm55-12c0 6.616-4.995 12-11.132 12h-3.738c-6.136 0-11.13-5.382-11.13-12v-4.33c0-4.227 3.175-7.67 7.076-7.67h2.205c.287.003.57.054.84.15A2.992 2.992 0 0144 37.01V38a1 1 0 102 0v-.993a2.994 2.994 0 011.866-2.864l.048-.014a2.73 2.73 0 01.8-.13h2.208C54.825 34 58 37.443 58 41.67V46z"/><path d="M37.684 36.052C37.534 36.1 34 37.333 34 42a1 1 0 102 0c0-3.173 2.212-4.013 2.325-4.054a1 1 0 10-.64-1.894zM13 17h-3a2 2 0 00-2 2v3a2 2 0 002 2h3a2 2 0 002-2v-3a2 2 0 00-2-2zm-3 5v-3h3v3h-3zm3 4h-3a2 2 0 00-2 2v3a2 2 0 002 2h3a2 2 0 002-2v-3a2 2 0 00-2-2zm-3 5v-3h3v3h-3zm3 4h-3a2 2 0 00-2 2v3a2 2 0 002 2h3a2 2 0 002-2v-3a2 2 0 00-2-2zm-3 5v-3h3v3h-3zm3 4h-3a2 2 0 00-2 2v3a2 2 0 002 2h3a2 2 0 002-2v-3a2 2 0 00-2-2zm-3 5v-3h3v3h-3zm8-27h14a1 1 0 100-2H18a1 1 0 100 2zm11 7H18a1 1 0 100 2h11a1 1 0 100-2zm-2 9h-9a1 1 0 100 2h9a1 1 0 100-2zm0 9h-9a1 1 0 100 2h9a1 1 0 100-2z"/></g><defs><clipPath id="clip0"><path fill="#fff" d="M0 0h60v60H0z"/></clipPath></defs></svg>