<svg width="60" height="66" fill="none" xmlns="http://www.w3.org/2000/svg"><path d="M58.91 14.18h-4.364a1.09 1.09 0 00-1.091 1.09v1.091a1.09 1.09 0 00-1.091-1.09H49.09A1.091 1.091 0 0048 16.288l-.075 1.163h-2.107V15.27a1.09 1.09 0 00-1.09-1.09h-4.364a1.09 1.09 0 00-1.091 1.09v6.546c0 .602.488 1.09 1.09 1.09h4.364a1.09 1.09 0 001.091-1.09v-2.182h1.964l-.596 8.925a2.172 2.172 0 01-2.175 1.984h-6.83v-.468a1.091 1.091 0 00-.623-.982 17.562 17.562 0 00-4.654-1.429 1.084 1.084 0 00-.52.052 10.73 10.73 0 00-1.838-.388v-2.976a9.09 9.09 0 00.938-.553c3.665-2.565 6.698-5.14 6.698-10.683v-1.118a12.044 12.044 0 00-3.796-8.757 12.109 12.109 0 00-15.398-.902 8.718 8.718 0 00-10.26 8.568V27.27a1.09 1.09 0 001.09 1.091 16.169 16.169 0 0011.2-4.48c.258.17.525.328.8.471v2.976a10.73 10.73 0 00-1.84.384 1.084 1.084 0 00-.518-.052c-1.61.258-3.177.739-4.654 1.429-.38.18-.622.562-.624.982v.036a25.876 25.876 0 00-6.546 16.8c0 2.992.143 6.436 1.03 8.727h-2.12v-2.182a1.09 1.09 0 00-1.091-1.09H1.09a1.09 1.09 0 00-1.091 1.09v6.546c0 .602.488 1.09 1.09 1.09h4.365a1.09 1.09 0 001.09-1.09v-2.182h6.237a16.691 16.691 0 00-1.873 7.636h2.182a14.475 14.475 0 011.09-5.47v.016c0 .602.49 1.09 1.092 1.09h4.363a1.09 1.09 0 001.091-1.09v-4.364h13.659l.628.785a14.51 14.51 0 013.168 9.033h2.182a16.7 16.7 0 00-3.647-10.395l-.835-1.043-.419-1.257a13.614 13.614 0 01.274-9.348l.061-.152a3.408 3.408 0 002.384-3.06v-.044l11.824-2.533a4.387 4.387 0 003.449-4.268V21.816c0 .602.488 1.09 1.09 1.09h4.364A1.09 1.09 0 0060 21.817V15.27a1.09 1.09 0 00-1.09-1.09zm-15.274 6.545h-2.181V16.36h2.181v4.364zM4.364 58.907H2.182v-4.364h2.182v4.364zm8.453-3.733l.076.463h-1.81c-.623-.867-1.265-3.12-1.265-8.73a24.2 24.2 0 014.364-13.413v6.625c-1.44 3.26-1.917 11.74-1.365 15.055zM25.527 2.2a9.806 9.806 0 0110.386 8.534l-5.97-2.986a1.082 1.082 0 00-.678-.098L16.59 9.887A9.683 9.683 0 0125.527 2.2zM10.91 26.138V10.907a6.552 6.552 0 015.941-6.515 12.001 12.001 0 00-2.668 7.606v1.118c0 4.68 2.165 7.242 5.044 9.472a13.992 13.992 0 01-8.317 3.55zm5.455-13.022v-.973L29.29 9.862l6.705 3.352c-.032 4.062-1.888 6.085-5.761 8.798a7.09 7.09 0 01-8.104 0c-3.906-2.736-5.766-4.764-5.766-8.896zm4.363 16.632a8.316 8.316 0 012.182-.296 1.09 1.09 0 001.091-1.09v-3.183c1.43.38 2.934.38 4.364 0v3.182a1.09 1.09 0 001.09 1.091c.738.001 1.471.1 2.182.296v1.745l-5.454 1.173-5.455-1.173v-1.745zm-5.935 22.736a45.78 45.78 0 01.84-9.723c.285.197.59.36.913.486 1.1 2.93 1.147 6.152.134 9.114h-1.406a1.065 1.065 0 00-.481.123zm3.754 6.423h-2.182v-4.364h2.181v4.364zm2.181-5.455a1.09 1.09 0 00-1.09-1.09h-.655a15.68 15.68 0 000-8.728h14.356a15.803 15.803 0 00.056 9.818H20.727zM36 40.198c0 .592-.933 1.254-2.182 1.254H18.546c-1.25 0-2.182-.662-2.182-1.254v-9.413c.708-.292 1.437-.53 2.181-.712v2.305c0 .514.36.959.862 1.067l6.546 1.408c.15.033.307.033.458 0l6.545-1.408a1.09 1.09 0 00.862-1.067v-2.306c.745.182 1.474.42 2.182.712v9.414zm13.548-4.712L38.182 37.92v-5.196h6.829a4.35 4.35 0 004.348-3.995l.753-11.278h1.16v15.9a2.193 2.193 0 01-1.724 2.134zm8.27-14.761h-2.182V16.36h2.182v4.364z" fill="#CB4900"/></svg>