<svg width="60" height="60" fill="none" xmlns="http://www.w3.org/2000/svg"><g clip-path="url(#clip0)"><path d="M58.245 28.996a5.927 5.927 0 00-4.219-1.749h-8.333l.005-7.294a11.612 11.612 0 00-7.35-10.772c-1.497-.59-3.383-1.059-4.989-.714a5.955 5.955 0 10-3.742 4.049l-3.375 5.742-7.478 3.688a3.824 3.824 0 00-1.996 2.488h-1.745a4.782 4.782 0 00-3.547 1.578 5.93 5.93 0 10-9.63 6.387H.815a.82.82 0 00-.82.82v7.003a.82.82 0 00.82.82h3.281v17.142a.82.82 0 00.82.82h5.625a.82.82 0 00.82-.82v-9.621c.059.003.117.009.175.009a3.329 3.329 0 003.042-1.978l2.416-5.55h11.612l-1.21 1.598a3.641 3.641 0 00-1.034 2.537v10.078a3.722 3.722 0 003.52 3.75h.11a3.638 3.638 0 003.636-3.634V46.69l2.614-2.59-.44 2.26a3.775 3.775 0 00-.036 1.162l1.345 8.288a3.635 3.635 0 004.045 3.171 3.637 3.637 0 003.167-4.044c0-.011-.003-.023-.005-.034l-1.27-7.735 1.193-6.126h4.386v17.142a.82.82 0 00.82.82h5.625a.82.82 0 00.82-.82V41.043h3.282a.82.82 0 00.82-.82V33.22a5.933 5.933 0 00-1.749-4.223zm-30.61-17.774a4.295 4.295 0 01-.84-8.505 4.294 4.294 0 11.84 8.505zm-8.143 12.195l7.695-3.797a.82.82 0 00.345-.32l4.875-8.297a1.997 1.997 0 011.717-.981 9.942 9.942 0 019.933 9.932l-.004 7.294h-.07a11.093 11.093 0 00-6.231-2.75l.437-2.866a5.437 5.437 0 00-3.165-5.778.82.82 0 00-1.04.333l-3.446 5.86a1.98 1.98 0 01-.837.774l-8.554 4.22a1.991 1.991 0 01-2.692-.96 1.763 1.763 0 01-.16-.812 2.143 2.143 0 011.197-1.852zm17.074-2.034l-.465 3.052h-5.96l.287-.141a3.616 3.616 0 001.525-1.419l3.039-5.168a3.796 3.796 0 011.574 3.676zm-34.931 6.72a4.294 4.294 0 118.588 0 4.294 4.294 0 01-8.588 0zm8.587 4.085v.21h-.21c.071-.067.142-.138.21-.21zM4.9 39.402H1.635v-5.363h8.587v5.36l-5.322.003zm4.82 1.797l-1.16 2.666a3.454 3.454 0 00.17 3.148c.247.413.586.764.991 1.024v9.328H5.737V41.042h3.984v.157zm6.737-8.8a.82.82 0 00-.82.82v6.832l-2.559 5.884a1.663 1.663 0 01-1.9.958 1.687 1.687 0 01-1.11-2.373l1.729-3.97v-.004a.817.817 0 00.067-.323V29.235a3.163 3.163 0 013.159-3.16h1.709a3.601 3.601 0 002.316 2.6 3.662 3.662 0 002.825-.163l4.943-2.437h9.788a9.448 9.448 0 016.497 2.588.82.82 0 00.563.224h10.363a4.335 4.335 0 014.25 3.511h-41.82zm20.34 8.838l-4.569 4.529a.82.82 0 00-.243.583v9.023a1.996 1.996 0 01-2.057 1.993A2.07 2.07 0 0128 55.255V45.177a1.988 1.988 0 01.594-1.412.847.847 0 00.079-.09l1.994-2.633h6.17l-.04.195zm4.161 16.114a1.986 1.986 0 01-2.224-1.773l-1.343-8.281a2.078 2.078 0 01.023-.627l.898-4.623 1.016-1.005h3.242l-1.16 5.956a.81.81 0 00-.005.29l1.291 7.86a1.994 1.994 0 01-1.736 2.203h-.002zm13.292.013h-3.984V41.042h3.984v16.322zm4.102-17.962H17.277v-5.363h41.077l-.002 5.363z" fill="#CB4900"/></g><defs><clipPath id="clip0"><path fill="#fff" d="M0 0h60v60H0z"/></clipPath></defs></svg>