<svg width="60" height="60" fill="none" xmlns="http://www.w3.org/2000/svg"><g clip-path="url(#clip0)" fill="#CB4900"><path d="M48.36 38.64c-3.059-1.678-7.072-3.09-11.14-3.927V32.17c3.817-2.802 6.6-7.31 6.6-11.26v-7.102C43.82 6.194 37.62 0 30 0S16.18 6.194 16.18 13.808v7.102c0 3.951 2.785 8.46 6.603 11.263v2.54c-3.222.664-6.445 1.696-9.171 2.943a1.172 1.172 0 00.974 2.131c2.827-1.292 6.229-2.342 9.58-2.956a1.17 1.17 0 00.96-1.152v-2.075c.426.21.86.397 1.298.56 1.308.484 2.444.71 3.576.71 1.131 0 2.268-.226 3.575-.71.44-.163.874-.351 1.301-.562v2.077c0 .566.405 1.05.961 1.152 4.154.761 8.307 2.17 11.395 3.864 2.754 1.513 5.444 3.392 5.444 8.208v8.753h-7.113V50.66a1.172 1.172 0 10-2.344 0v6.996H16.781V50.66a1.172 1.172 0 00-2.344 0v6.996H7.324v-8.753c0-1.05.129-2.012.383-2.86a1.172 1.172 0 00-2.245-.673c-.32 1.066-.482 2.254-.482 3.533v9.925c0 .647.525 1.172 1.172 1.172h47.695c.648 0 1.172-.525 1.172-1.172v-9.925c0-5.806-3.2-8.363-6.66-10.262zm-6.884-24.936a34.68 34.68 0 00-7.578-1.745V3.025c4.385 1.586 7.534 5.77 7.578 10.68zM31.555 2.45v9.322a34.158 34.158 0 00-3.11 0V2.449a11.553 11.553 0 013.11 0zm-5.453.576v8.934a34.678 34.678 0 00-7.578 1.745c.043-4.91 3.193-9.093 7.578-10.679zM18.523 16.2a32.119 32.119 0 0122.954 0v3.01h-2.943a3.625 3.625 0 00-3.423-2.448h-2.66c-.945 0-1.805.363-2.45.956a3.604 3.604 0 00-2.448-.956h-2.66a3.628 3.628 0 00-3.427 2.448h-2.943V16.2zm17.863 4.182c0 .702-.572 1.273-1.275 1.273h-2.66a1.277 1.277 0 01-1.28-1.273 1.28 1.28 0 011.28-1.277h2.66c.703 0 1.275.573 1.275 1.277zm-7.558 0c0 .702-.572 1.273-1.275 1.273h-2.66a1.277 1.277 0 01-1.28-1.273 1.28 1.28 0 011.28-1.277h2.66c.703 0 1.275.573 1.275 1.277zm3.933 11.583c-1.039.386-1.916.565-2.761.565-.845 0-1.722-.18-2.762-.565-4.407-1.63-8.297-6.367-8.681-10.411h2.91a3.627 3.627 0 003.426 2.445h2.66c.943 0 1.803-.363 2.448-.956a3.611 3.611 0 002.45.956h2.66a3.624 3.624 0 003.423-2.445h2.91c-.385 4.044-4.276 8.78-8.683 10.412z"/><path d="M9.302 42.764a1.172 1.172 0 10-.826-2.001l-.003.003a1.17 1.17 0 00.83 1.998z"/></g><defs><clipPath id="clip0"><path fill="#fff" d="M0 0h60v60H0z"/></clipPath></defs></svg>