<svg width="60" height="60" fill="none" xmlns="http://www.w3.org/2000/svg"><g clip-path="url(#clip0)" fill="#CB4900"><path d="M16.785 34.581c.478 1.275 1.17 5.485 1.14 6.931-.035 1.742-.499 4.562-.947 7.29a.879.879 0 001.734.284c.48-2.916.933-5.67.971-7.538.035-1.69-.69-6.085-1.252-7.584-1.203-3.211-3.112-7.445-3.112-11.666 0-.911-1.224-1.218-1.654-.415-1.624 3.033-2.232 7.566-2.72 11.208-.49 3.661-.648 3.093-.254 6.84.107 1.015.217 2.063.184 2.694-.283 5.361-1.74 13.238-2.199 15.617h-4.33c-.182-2.677-.718-11.387-.476-17.54.25-6.36 1.724-9.938 1.774-11.318.096-2.568.33-5.07.538-7.276.207-2.213.371-3.96.326-5.057-.107-2.629-.072-5.572 1.713-7.239 1.675-1.566 5.433-2.213 8.113-2.564a.879.879 0 10-.227-1.743c-3.168.415-7.064 1.133-9.086 3.022-2.329 2.175-2.393 5.577-2.27 8.596.041.978-.126 2.759-.32 4.82-.208 2.23-.446 4.758-.543 7.376-.036.99-1.522 4.918-1.775 11.314-.29 7.413.528 18.443.537 18.554a.879.879 0 00.876.813H9.4a.879.879 0 00.861-.705c.083-.41 2.027-10.1 2.37-16.577.04-.77-.072-1.838-.191-2.97-.364-3.455-.242-2.775.247-6.423.306-2.282.66-4.928 1.278-7.255.648 3.19 1.935 6.151 2.82 8.511z"/><path d="M57.887 40.633c-.257-6.497-1.737-10.277-1.775-11.315a106.052 106.052 0 00-.345-5.21.88.88 0 00-1.751.154c.111 1.269.267 3.18.34 5.121.05 1.38 1.523 4.961 1.774 11.32.242 6.15-.294 14.862-.476 17.54h-4.33c-.459-2.38-1.915-10.255-2.199-15.618-.033-.631.077-1.68.184-2.693.394-3.75.237-3.173-.254-6.841-.488-3.642-1.096-8.175-2.72-11.208-.43-.802-1.654-.497-1.654.415 0 4.182-1.867 8.342-3.112 11.666-.562 1.499-1.288 5.894-1.252 7.584.038 1.87.49 4.614 1.012 7.79.456 2.772.967 5.877 1.281 8.904H30.88V31.25a.879.879 0 10-1.758 0v26.993H17.39c.164-1.58.397-3.336.723-5.442a.88.88 0 00-1.737-.269c-.399 2.579-.663 4.648-.83 6.512a.88.88 0 00.876.957h27.157a.88.88 0 00.875-.957c-.304-3.389-.88-6.896-1.39-9.99-.512-3.11-.954-5.797-.99-7.541-.03-1.446.663-5.656 1.142-6.93.889-2.375 2.171-5.324 2.819-8.512.617 2.328.972 4.973 1.278 7.255.489 3.648.61 2.968.247 6.423-.119 1.132-.23 2.2-.19 2.97.342 6.477 2.286 16.167 2.369 16.577.082.41.443.705.861.705h5.874c.46 0 .842-.354.876-.813.009-.11.828-11.14.537-18.554zM20.08 6.807c1.295-.161 1.973-.3 2.42-.495 1.862-.809 3.496-2.53 3.726-4.554h7.547c.235 2.111 1.988 3.799 3.726 4.554.709.308 2.04.458 3.881.665 3.334.375 8.372.941 10.4 2.835 1.784 1.667 1.82 4.61 1.712 7.238-.036.869.065 2.178.18 3.463a.879.879 0 001.75-.155c-.109-1.227-.205-2.467-.173-3.236.123-3.018.06-6.42-2.27-8.594-2.452-2.292-7.625-2.873-11.402-3.298-1.497-.168-2.91-.327-3.377-.53-1.47-.639-2.862-2.122-2.679-3.72a.88.88 0 00-.873-.98h-9.296a.878.878 0 00-.873.98c.184 1.598-1.209 3.081-2.68 3.72-.389.17-1.554.315-1.937.363a.879.879 0 00.218 1.744zm5.537 7.333c-.014.057-1.424 5.804-5.557 9.85a.879.879 0 101.23 1.257c4.505-4.412 5.977-10.446 6.037-10.7a.879.879 0 00-1.71-.407z"/><path d="M35.253 14.14a.88.88 0 00-1.71.406c.06.255 1.532 6.29 6.037 10.7a.879.879 0 001.23-1.255c-4.131-4.045-5.542-9.79-5.557-9.851z"/></g><defs><clipPath id="clip0"><path fill="#fff" d="M0 0h60v60H0z"/></clipPath></defs></svg>