<svg width="60" height="60" fill="none" xmlns="http://www.w3.org/2000/svg"><g clip-path="url(#clip0)" fill="#CB4900"><path d="M58 33h-1.382l-2.07-4.141A24.245 24.245 0 0152 18.066V2a2 2 0 00-2-2h-8a2 2 0 00-2 2v6c0 5.523-4.477 10-10 10S20 13.523 20 8V2a2 2 0 00-2-2h-8a2 2 0 00-2 2v16.155A24.246 24.246 0 015.523 28.8L3.46 33H2a2 2 0 00-2 2v6a2 2 0 002 2v7a2 2 0 00-2 2v6a2 2 0 002 2h56a2 2 0 002-2v-6a2 2 0 00-2-2v-7a2 2 0 002-2v-6a2 2 0 00-2-2zm-14 8v-6h10v6H44zm0 9v-7h6v7h-6zm8.76-20.246L54.381 33H52v-4.928c.235.569.484 1.128.76 1.682zM42 6h8v2h-8V6zm8-4v2h-8V2h8zm-8.181 8H50v8.066c0 .312.016.623.027.934H50v14h-6v-8a1 1 0 00-.2-.6l-5.688-7.583A11.97 11.97 0 0041.819 10zm-9.345 9.741A18.204 18.204 0 0130 24.001a18.071 18.071 0 01-2.476-4.258c1.631.346 3.317.346 4.948 0l.002-.002zm-10.586-2.924L16.2 24.4a1 1 0 00-.2.6v8h-6V19h-.025c.01-.282.025-.563.025-.845V10h8.181a11.97 11.97 0 003.707 6.817zM16 58H6v-6h10v6zm-6-8v-7h6v7h-6zM6 35h10v6H6v-6zM18 8h-8V6h8v2zm0-6v2h-8V2h8zM7.318 29.687c.245-.5.47-1.006.682-1.519V33H5.69l1.628-3.313zM2 35h2v6H2v-6zm2 8h4v7H4v-7zm-2 9h2v6H2v-6zm16-1V25.333l5.462-7.283c.537.35 1.1.656 1.685.916a19.866 19.866 0 003.378 6.38 1.993 1.993 0 002.95 0 19.892 19.892 0 003.378-6.38 12.257 12.257 0 001.685-.917L42 25.333V58H18v-7zm26 1h10v6H44v-6zm14 6h-2v-6h2v6zm-2-8h-4v-7h4v7zm2-9h-2v-6h2v6z"/><path d="M38 28H22a1 1 0 100 2h16a1 1 0 100-2zm0 5H22a1 1 0 100 2h16a1 1 0 100-2zm0 5H22a1 1 0 100 2h16a1 1 0 100-2zm0 5H22a1 1 0 100 2h16a1 1 0 100-2zm0 5H22a1 1 0 100 2h16a1 1 0 100-2zm0 5H22a1 1 0 100 2h16a1 1 0 100-2z"/></g><defs><clipPath id="clip0"><path fill="#fff" d="M0 0h60v60H0z"/></clipPath></defs></svg>