<svg width="60" height="60" fill="none" xmlns="http://www.w3.org/2000/svg"><path d="M10.313 8.438h18.75a.937.937 0 000-1.876h-18.75a.938.938 0 000 1.875z" fill="#CB4900"/><path d="M52.5 26.734v-3.078a2.806 2.806 0 00.938-2.093v-1.875a2.816 2.816 0 00-2.813-2.813H41.25a2.816 2.816 0 00-2.813 2.813v1.875a2.807 2.807 0 00.938 2.094v3.077a8.442 8.442 0 00-2.728 1.598L37.499 6.6l.001-.037v-3.75a.938.938 0 00-.938-.937H2.813a.937.937 0 00-.937.938v3.75a.65.65 0 000 .036l1.876 47.813a.937.937 0 00.668.861c.387.116 9.582 2.852 16.206 2.852 5.493 0 11.508-1.876 13.618-2.598a4.692 4.692 0 004.194 2.598h15a4.693 4.693 0 004.688-4.688v-18.75a8.451 8.451 0 00-5.625-7.953zm-12.188-7.047a.938.938 0 01.938-.937h9.375a.938.938 0 01.938.938v1.875a.938.938 0 01-.938.937H41.25a.938.938 0 01-.938-.938v-1.875zm.938 4.688h9.375v1.928a8.488 8.488 0 00-.938-.053h-7.5c-.313 0-.626.018-.937.053v-1.928zM35.625 52.5V36.562H56.25V52.5H35.625zm-15 3.75c-5.376 0-12.82-1.97-15.027-2.589L3.824 8.437h2.739a.937.937 0 100-1.874H3.75l-.001-.019V3.75h31.875v2.813h-2.813a.937.937 0 000 1.875h2.739l-.88 22.423a8.382 8.382 0 00-.921 3.826v18.75c0 .092.003.182.008.272-1.883.645-7.87 2.541-13.133 2.541zm32.813 0h-15a2.817 2.817 0 01-2.652-1.875H56.09a2.817 2.817 0 01-2.651 1.875zM35.624 34.687a6.57 6.57 0 016.563-6.562h7.5a6.57 6.57 0 016.562 6.563H35.625z" fill="#CB4900"/><path d="M50.625 41.25h-3.75c-.054 0-.108.002-.161.005v-.005a2.813 2.813 0 00-4.801-1.989l-1.325 1.325-1.326 1.326a2.813 2.813 0 003.977 3.979l.96-.961a2.817 2.817 0 002.676 1.945h3.75a2.812 2.812 0 100-5.625zm-7.386-.663a.937.937 0 111.326 1.326l-.663.663-1.326-1.326.663-.663zm-2.652 3.978a.939.939 0 010-1.326l.663-.663 1.326 1.326-.663.663a.938.938 0 01-1.326 0zm5.35-.502a.938.938 0 01.938-.938h.938V45h-.938a.939.939 0 01-.938-.938zm4.688.937h-.938v-1.875h.938a.938.938 0 010 1.875zm-2.812 3.75h-3.75a.938.938 0 000 1.875h3.75a.938.938 0 000-1.875zM22.5 43.125a.938.938 0 000-1.875h-3.75a.938.938 0 000 1.875h3.75zM26.25 45H15a.938.938 0 000 1.875h11.25a.938.938 0 000-1.875zm-.548-28.914A2.793 2.793 0 0023.482 15h-2.857a2.812 2.812 0 100 5.625h1.996c.23 2.012.199 4.85-.752 5.864a9.946 9.946 0 00-2.182-.239c-1.963 0-3.811.576-5.182 1.551a4.686 4.686 0 00-4.675 8.126 4.688 4.688 0 004.675.022c1.371.976 3.22 1.551 5.182 1.551 1.963 0 3.812-.575 5.182-1.551a4.685 4.685 0 002.319.614h.04a4.593 4.593 0 003.326-1.464 4.839 4.839 0 001.32-3.38c-.063-7.016-4.337-13.27-6.172-15.633zm3.488 17.727a2.76 2.76 0 01-2.89.732c.071-.1.14-.202.203-.306a.938.938 0 10-1.599-.978c-.878 1.436-2.926 2.364-5.217 2.364-2.29 0-4.338-.928-5.216-2.364a.94.94 0 00-1.29-.31.936.936 0 00-.31 1.288c.064.104.132.205.203.305a2.813 2.813 0 110-5.338c-.071.1-.14.2-.203.305a.937.937 0 101.6.978c.878-1.436 2.926-2.364 5.216-2.364a7.409 7.409 0 013.495.826.938.938 0 00.887-1.652 8.554 8.554 0 00-.353-.177c1.44-2.471.74-7.026.646-7.589a.937.937 0 00-.925-.783h-2.812a.938.938 0 010-1.875h2.857a.929.929 0 01.739.36c1.34 1.727 5.718 7.875 5.778 14.501.01.771-.28 1.516-.81 2.077z" fill="#CB4900"/></svg>